<svg width="320" height="166" viewBox="0 0 320 166" fill="none" xmlns="http://www.w3.org/2000/svg">
<g clip-path="url(#clip0)">
<path d="M0 0H320V166H0V0Z" fill="white"/>
<path d="M320 0H0V166H320V0Z" fill="#B4E2D3"/>
<path fill-rule="evenodd" clip-rule="evenodd" d="M281.998 120.265L305.525 118.013L320 125.333V165.998H177.087H142.395H0V118.707L31.6414 121.531L68.3112 114.123L76.5655 115.42L100 129.263L113.852 127.041L121.822 127.272L131.689 138.43L139.421 135.745L154.803 143.497L155.782 142.6L161.005 143.657L165.18 142.828L165.832 143.413L181.384 135.421L189.116 138.142L198.876 126.834L206.844 126.6L220.611 128.852L243.903 114.822L254.7 113.086L281.998 120.265Z" fill="#82CEB5" fill-opacity="0.3"/>
<path d="M0 128.648L22.4071 141.503L47.1355 134.178L84.4648 129.522L116.204 154.987L146.996 149.894L165.045 154.696L194.748 142.958L209.054 149.652L235.346 150.185L253.11 140.921L283.05 145.723L304.462 136.749L320 137.089V165.998H0V128.648Z" fill="#82CEB5" fill-opacity="0.4"/>
<path d="M148.061 40.6523L133.98 44.1189L148.061 46.7855V40.6523Z" fill="#F14A55"/>
<path d="M147.988 97.5072C148.037 97.5072 148.084 97.4878 148.118 97.4533C148.153 97.4188 148.172 97.372 148.172 97.3232V39.6098C148.172 39.561 148.153 39.5142 148.118 39.4797C148.084 39.4452 148.037 39.4258 147.988 39.4258C147.94 39.4258 147.893 39.4452 147.858 39.4797C147.824 39.5142 147.805 39.561 147.805 39.6098V97.3232C147.805 97.372 147.824 97.4188 147.858 97.4533C147.893 97.4878 147.94 97.5072 147.988 97.5072Z" fill="#FCC6B6"/>
<path d="M178.394 53.5925L177.225 52.8255L175.049 52.6641L173.921 52.7852L173.881 53.1081L175.775 53.9962H176.863L177.668 54.7228L178.394 53.5925Z" fill="#FCC6B6"/>
<path d="M171.462 66.1466C173.315 66.5099 181.737 65.2182 182.301 61.02C182.945 56.5796 178.07 53.3906 178.07 53.3906L176.901 55.086C177.385 55.7319 179.4 58.7595 177.506 59.9301C174.564 61.7063 171.301 60.2934 170.052 61.02C167.997 62.1099 168.4 65.5008 171.462 66.1466Z" fill="#343836"/>
<path d="M171.947 60.2539L172.833 60.7383L172.551 61.9493L171.705 60.9402L171.947 60.2539Z" fill="#058D66"/>
<path d="M168.118 58.9615C167.635 58.9211 165.177 61.222 164.573 64.3303C163.968 67.4386 164.452 68.4477 164.21 71.6367C163.807 76.4001 158.287 76.8037 158.206 78.3377C158.126 79.5891 161.954 80.8808 164.17 80.9615C166.386 81.0423 168.723 80.4771 170.214 79.468C173.921 76.9652 174.404 72.767 174.686 69.0936C174.928 65.3798 172.551 59.4862 168.118 58.9615Z" fill="#343836"/>
<path d="M151.034 58.2777C151.034 58.2777 149.543 57.0667 149.422 56.663C149.301 56.2593 148.818 56.0171 148.616 56.0575C148.495 56.0979 148.415 56.1382 148.173 56.1382C147.931 56.0979 147.408 55.6942 147.166 55.896C147.005 56.0171 147.125 56.219 147.085 56.3401C147.045 56.5015 146.964 56.4208 146.884 56.5823C146.763 56.8648 146.924 56.9456 146.884 57.0667C146.884 57.1878 146.763 57.4704 146.964 57.6722C147.166 57.874 147.005 57.9951 147.125 58.0759C147.488 58.2373 147.851 58.2373 148.737 58.3181C149.422 58.3988 150.188 59.7713 150.188 59.7713L151.034 58.2777Z" fill="#FCC6B6"/>
<path d="M158.447 65.2583C154.176 63.9665 149.744 59.6876 149.744 59.6876L150.792 57.6289C150.792 57.6289 156.715 61.2619 159.294 61.0601C161.993 60.8179 165.539 59.8895 165.74 59.8895C168.36 59.728 170.334 60.8986 170.817 62.15C171.019 62.6748 170.979 63.1592 170.737 63.5225C168.4 66.4289 161.51 66.1867 158.447 65.2583Z" fill="#343836"/>
<path d="M170.011 56.3375C169.246 56.1357 169.326 54.8843 169.769 54.4806C170.172 54.1173 170.535 53.5118 170.938 54.3192C171.019 53.5118 170.898 52.3008 170.938 51.8164C171.301 51.8971 173.114 51.9779 173.476 51.9375C173.879 52.3815 174.363 53.31 174.202 54.1981C174.121 54.6421 174.161 54.4403 174.524 55.3283C174.685 55.6916 174.806 56.055 174.806 56.055L174.041 56.6605C174.041 56.6605 174.363 58.5173 173.96 58.8807C173.557 59.2036 172.388 59.3247 171.905 59.1229C171.865 59.6073 171.26 61.2219 171.26 61.2219C171.26 61.2219 169.084 60.455 168.238 59.4862C168.319 59.0018 168.561 58.3559 168.601 57.71C169.447 57.6293 169.931 57.2256 170.011 56.3375Z" fill="#FCC6B6"/>
<path d="M169.689 50.8484C171.824 50.1622 173.235 50.5659 173.678 50.7677C174.524 51.131 173.356 51.9383 173.356 51.9383C172.993 51.9787 171.583 52.2209 171.22 52.1402C171.784 52.9475 171.301 54.4007 171.22 55.2081C170.857 54.4007 170.092 54.1182 169.689 54.4815C169.286 54.8448 169.447 56.0154 170.213 56.2576C170.132 57.1457 169.367 57.6301 168.44 57.6705C168.48 57.2668 168.279 56.1365 168.117 55.7732C167.231 53.4319 167.553 51.5347 169.689 50.8484Z" fill="#343836"/>
<path d="M167.514 58.6406L166.789 59.9324C166.789 59.9324 170.778 60.336 172.108 62.1929C172.188 61.3856 172.027 60.1342 172.027 60.1342L167.514 58.6406Z" fill="#F4F5F4"/>
<path d="M173.84 54.1987C173.8 54.0372 173.357 53.8354 173.035 53.9969C172.712 54.1583 172.672 54.3602 172.672 54.3602C173.437 54.2794 173.034 54.2794 173.558 54.4409C173.8 54.4813 173.881 54.4005 173.84 54.1987Z" fill="#343836"/>
<path d="M172.914 55.0065C172.914 55.0065 173.317 54.8047 173.518 54.8047C173.559 55.1276 173.478 55.168 173.478 55.2891C173.196 55.1276 172.914 55.0065 172.914 55.0065Z" fill="#343836"/>
<path d="M172.712 61.1016C172.712 61.1016 174.646 62.2318 174.445 63.5236C173.921 66.7126 169.73 67.197 169.73 67.197C169.73 67.197 174.042 63.8062 172.35 61.5456C172.43 61.4245 172.712 61.1016 172.712 61.1016Z" fill="#058D66"/>
<path d="M168.32 80.0327C168.32 80.0327 157.965 95.0493 155.628 101.064C154.62 103.607 153.734 105.868 153.734 105.868L151.195 104.859C152.283 100.014 152.646 93.8383 157.32 89.3575C159.254 87.4603 162.8 77.0859 162.8 77.0859L168.32 80.0327Z" fill="#343836"/>
<path d="M156.836 109.662L157.601 108.289L158.891 108.975L158.407 110.671C157.561 110.711 157.078 110.106 156.836 109.662Z" fill="#FCC6B6"/>
<path d="M157.238 108.734L156.392 109.178L155.828 109.824L156.634 110.551L157.118 110.632L158.044 111.762L160.059 113.538L160.22 113.215L158.81 110.228L157.48 109.865L157.238 108.734Z" fill="#343836"/>
<path d="M170.254 78.0547C169.972 80.4767 168.158 85.3611 167.312 87.1777C160.342 102.517 159.375 110.066 159.375 110.066L156.191 107.402C156.876 102.477 157.561 99.2878 160.503 93.5557C162.719 89.2767 165.781 78.9024 165.781 78.9024L170.254 78.0547Z" fill="#343836"/>
<path d="M151.355 106.634L151.92 105.141L153.33 105.706L153.41 107.038C152.564 107.32 151.718 106.957 151.355 106.634Z" fill="#FCC6B6"/>
<path d="M151.599 105.586L150.954 106.272L150.672 107.12L151.679 107.524L152.122 107.443L153.372 108.169L155.91 109.138L155.95 108.735L153.573 106.434L152.203 106.595L151.599 105.586Z" fill="#343836"/>
<path d="M104.596 166.443L136.858 114.188L137.715 112.839L138.266 111.919L142.858 104.436H142.919L143.409 103.577L144.144 102.412L148 96.1562L152.286 101.799L152.653 102.289L159.693 111.612L160.244 112.409L160.979 113.329L162.448 115.292L172.06 128.049L173.162 129.46L176.039 133.323L176.406 133.875L177.508 135.286L194.282 157.55L201.017 166.443H104.596Z" fill="#82CEB5"/>
<path opacity="0.4" fill-rule="evenodd" clip-rule="evenodd" d="M148.001 96.1562L143.593 125.228L159.002 141.012L159.082 141.052L164.102 143.567V151.233L164.102 151.233L174.203 143.566L178.244 157.55L180.815 166.443H164.163L164.163 166.443H115.188L129.146 143.567L131.656 140.745L133.737 128.418L133.747 128.423L133.737 128.417L148.001 96.1562Z" fill="#51B998"/>
<path d="M149.103 147.062C149.103 147.062 146.103 137.127 155.592 129.889C165.081 122.652 173.713 128.908 173.713 128.908C174.753 126.162 176.785 123.907 179.406 122.591C189.691 117.194 204.384 129.951 194.283 141.849C197.466 138.967 210.383 137.188 213.383 144.364C218.954 157.489 204.874 157.55 204.874 157.55H134.287C124.554 157.55 126.084 137.556 149.103 147.062Z" fill="#F4F5F4"/>
<path d="M127.112 59.8493C127.112 59.8493 126.867 58.5614 128.52 58.684C130.173 58.8067 131.336 60.524 130.969 61.444C130.602 62.3639 131.214 63.1613 130.418 64.0812C129.622 65.0012 128.337 65.6759 127.051 63.7746C125.765 61.8733 125.888 59.42 127.112 59.8493Z" fill="#343836"/>
<path d="M127.05 67.5764C127.846 67.1471 127.295 64.4484 127.295 64.4484L128.764 64.3258L130.234 64.2031C130.234 64.2031 130.173 66.9631 130.968 67.2697C131.091 68.803 129.805 68.5577 129.193 69.2323C128.458 68.6804 127.173 69.1097 127.05 67.5764Z" fill="#FCC6B6"/>
<path d="M126.561 62.3029C126.683 64.0815 127.173 65.7375 128.887 65.5535C130.601 65.3695 130.724 63.7135 130.54 61.9349C130.357 60.1563 129.499 59.1136 128.336 59.2363C127.173 59.359 126.439 60.5856 126.561 62.3029Z" fill="#FCC6B6"/>
<path d="M129.071 61.6885C129.139 61.6432 129.215 61.612 129.295 61.5967C129.376 61.5814 129.458 61.5824 129.538 61.5996C129.618 61.6167 129.693 61.6497 129.76 61.6966C129.827 61.7434 129.884 61.8033 129.928 61.8725C129.622 61.8112 129.009 62.0565 129.071 61.6885Z" fill="#343836"/>
<path d="M129.194 62.4252C129.194 62.4252 129.377 61.9959 129.867 62.4252H129.194Z" fill="#343836"/>
<path d="M128.092 61.7525C128.092 61.7525 127.48 61.5685 127.296 62.0592C127.113 62.5499 128.214 62.1205 128.092 61.7525Z" fill="#343836"/>
<path d="M128.092 62.4879C128.092 62.4879 127.847 62.12 127.418 62.6106C127.629 62.5149 127.861 62.4727 128.092 62.4879Z" fill="#343836"/>
<path d="M129.256 64.0195L128.154 64.1422C128.169 64.294 128.24 64.4347 128.353 64.5368C128.467 64.6388 128.614 64.695 128.766 64.6942C129.317 64.6942 129.256 64.0195 129.256 64.0195Z" fill="#343836"/>
<path d="M130.48 66.6586C130.48 66.6586 134.582 66.2293 135.133 67.1493C135.684 68.0693 134.153 79.7837 138.5 82.4823C135.317 82.4823 130.97 82.421 130.358 78.925C129.746 75.4291 128.705 68.7439 128.705 68.7439L130.48 66.6586Z" fill="#343836"/>
<path d="M145.295 64.5094C145.687 64.1715 146.119 63.8831 146.581 63.6508C146.765 63.0375 147.928 62.9761 148.05 63.0988C148.068 63.105 148.084 63.1151 148.097 63.1285C148.11 63.1418 148.12 63.158 148.126 63.1757C148.132 63.1935 148.133 63.2124 148.131 63.2309C148.128 63.2495 148.122 63.2672 148.111 63.2828C148.417 63.1601 148.846 63.0375 148.907 63.2828C148.968 63.5281 148.846 63.5281 148.724 63.5281C148.752 63.5179 148.783 63.515 148.813 63.5196C148.843 63.5241 148.871 63.5361 148.895 63.5543C148.92 63.5725 148.939 63.5964 148.952 63.624C148.964 63.6515 148.97 63.6818 148.968 63.7121C148.968 63.8348 148.724 63.8961 148.662 63.8961C148.601 63.8961 148.968 63.9574 148.968 64.0801C148.968 64.1452 148.943 64.2076 148.897 64.2536C148.851 64.2996 148.789 64.3254 148.724 64.3254C148.785 64.3868 148.907 64.3254 148.907 64.5708C148.907 64.8161 148.417 64.7548 147.928 64.8161C147.438 64.8774 147.377 65.0614 147.071 65.0001C146.687 65.2665 146.276 65.4926 145.846 65.6747L145.295 64.5094Z" fill="#FCC6B6"/>
<path d="M132.5 67.3311C132.403 69.1746 132.485 71.0233 132.745 72.8509C135.439 71.747 142.173 70.091 146.336 65.7978C146.149 65.2186 145.859 64.6783 145.479 64.2031C145.479 64.2031 139.173 67.5151 132.5 67.3311Z" fill="#343836"/>
<path d="M136.724 110.449L136.969 112.412L137.275 113.638L135.99 114.129L136.051 113.209L135.378 110.633L136.724 110.449Z" fill="#FCC6B6"/>
<path d="M136.908 112.227L137.642 112.472L138.193 112.901L137.642 113.576L137.275 113.76L136.724 114.741L135.377 116.52L135.255 116.274L135.867 113.637L136.908 113.208V112.227Z" fill="#343836"/>
<path d="M126.562 66.9648C125.163 67.4574 123.793 68.0308 122.46 68.6821C122.154 69.6635 127.541 76.226 127.97 86.0391C131.092 85.5484 131.092 82.4205 131.031 78.8632C130.97 75.306 128.704 68.7435 128.704 68.7435L126.562 66.9648Z" fill="#343836"/>
<path d="M141.867 99.1016V104.069H143.336L143.52 102.72L142.846 102.843L143.52 99.3469L141.867 99.1016Z" fill="#FCC6B6"/>
<path d="M137.335 81.4375C139.416 83.0935 146.64 89.3493 145.783 92.8452C145.293 94.8692 143.028 101.922 143.028 101.922H141.008C141.008 101.922 141.008 95.9732 142.355 92.7839C142.967 91.2506 136.417 88.92 134.213 85.8534L137.335 81.4375Z" fill="#343836"/>
<path d="M129.316 83.2188C129.928 86.96 132.683 95.4851 132.683 98.4291C132.683 101.373 135.438 111.125 135.438 111.125L136.968 110.818C137.274 104.256 137.152 101.434 135.988 97.6318C135.56 96.0371 135.989 90.6399 135.009 85.304L129.316 83.2188Z" fill="#343836"/>
<path d="M141.711 103.842L142.279 104.403L142.926 104.758L143.147 104.077L143.886 103.467L144.828 101.55L144.548 101.426L142.988 102.289L143.056 103.406L141.711 103.842Z" fill="#343836"/>
<path d="M127.111 59.8481C127.816 60.2062 128.587 60.415 129.376 60.4614C130.784 60.3388 130.662 61.5041 130.662 61.5041C130.778 61.2324 130.817 60.9337 130.774 60.6413C130.731 60.3489 130.607 60.0743 130.417 59.8481C130.094 59.485 129.678 59.2184 129.213 59.0777C128.748 58.937 128.254 58.9277 127.785 59.0508C127.111 59.3575 127.111 59.8481 127.111 59.8481Z" fill="#343836"/>
<path d="M130.724 62.1174C130.724 62.1174 131.214 61.4428 131.153 62.3628C131.092 63.2827 130.847 64.08 130.541 64.1414C130.235 64.2027 130.235 63.8347 130.235 63.8347L130.724 62.1174Z" fill="#FCC6B6"/>
<path d="M126.5 62.4259C126.5 62.4259 125.826 61.874 126.071 62.7939C126.316 63.7139 126.622 64.4499 126.928 64.3886C127.009 64.3886 127.087 64.3563 127.145 64.2987C127.202 64.2412 127.234 64.1632 127.234 64.0819L126.5 62.4259Z" fill="#FCC6B6"/>
<path d="M127.235 68.0684L129.194 71.687L129.868 72.9749L130.357 71.687L130.725 67.7617L127.235 68.0684Z" fill="#FAFAFA"/>
<path d="M129.316 67.4531L128.52 67.5145L128.337 68.3118L129.01 68.8638L129.684 68.2504L129.316 67.4531Z" fill="#058D66"/>
<path d="M129.255 68.6797L130.357 71.6849L129.868 72.9729L129.194 71.6849L128.766 68.741L129.255 68.6797Z" fill="#058D66"/>
<path d="M127.234 66.043L126.377 67.147L128.275 69.3549L129.01 67.3923L127.234 66.043Z" fill="#F4F5F4"/>
<path d="M130.541 65.7383L131.582 66.7196L130.113 69.1729L129.011 67.3942L130.541 65.7383Z" fill="#F4F5F4"/>
<path d="M138.01 82.0501L128.949 79.9648L129.684 84.6261L135.377 87.202L137.887 83.2768L138.01 82.0501Z" fill="#343836"/>
<path d="M125.337 80.7617L126.255 81.191C126.745 80.3324 126.99 81.0071 126.867 81.1297C127.185 81.1011 127.504 81.165 127.786 81.3137C127.845 81.3391 127.894 81.3824 127.927 81.4374C127.96 81.4925 127.975 81.5564 127.969 81.6204C127.974 81.6775 127.966 81.735 127.944 81.7882C127.923 81.8415 127.89 81.889 127.847 81.927C127.969 82.1723 127.847 82.295 127.724 82.295C127.759 82.3406 127.779 82.3948 127.784 82.4515C127.79 82.5082 127.779 82.5652 127.753 82.6162C127.728 82.6671 127.689 82.7099 127.641 82.7399C127.592 82.7698 127.536 82.7857 127.48 82.7857C127.418 83.3377 126.01 82.663 125.765 82.1724L125.092 81.9884L125.337 80.7617Z" fill="#FCC6B6"/>
<path d="M122.458 68.6797C122.458 68.6797 124.601 70.8263 124.724 73.4022C122.703 74.6289 120.928 75.8555 121.357 77.2662C121.785 78.6768 123.56 79.9034 125.703 80.9461C125.336 82.1727 125.03 82.2954 125.03 82.2954C125.03 82.2954 118.54 81.2527 117.806 77.7568C117.071 74.2609 120.683 69.9677 122.458 68.6797Z" fill="#343836"/>
</g>
<defs>
<clipPath id="clip0">
<path d="M0 0H320V166H0V0Z" fill="white"/>
</clipPath>
</defs>
</svg>
