<svg width="320" height="166" viewBox="0 0 320 166" fill="none" xmlns="http://www.w3.org/2000/svg">
<path d="M0 0H320V166H0V0Z" fill="white"/>
<path d="M320 0H0V166H320V0Z" fill="#B4E2D3"/>
<path fill-rule="evenodd" clip-rule="evenodd" d="M281.998 120.265L305.525 118.013L320 125.333V165.998H177.087H142.395H0V118.707L31.6414 121.531L68.3112 114.123L76.5655 115.42L100 129.263L113.852 127.041L121.822 127.272L131.689 138.43L139.421 135.745L154.803 143.497L155.782 142.6L161.005 143.657L165.18 142.828L165.832 143.413L181.384 135.421L189.116 138.142L198.876 126.834L206.844 126.6L220.611 128.852L243.903 114.822L254.7 113.086L281.998 120.265Z" fill="#82CEB5" fill-opacity="0.3"/>
<path d="M0 128.648L22.4071 141.503L47.1355 134.178L84.4648 129.522L116.204 154.987L146.996 149.894L165.045 154.696L194.748 142.958L209.054 149.652L235.346 150.185L253.11 140.921L283.05 145.723L304.462 136.749L320 137.089V165.998H0V128.648Z" fill="#82CEB5" fill-opacity="0.4"/>
<path d="M169.683 34.4961L160.99 36.52L169.683 38.0533V34.4961Z" fill="#F14A55"/>
<path d="M169.561 65.0993C169.438 65.0993 169.377 64.9767 169.377 64.854V32.4094C169.377 32.2867 169.438 32.1641 169.561 32.1641C169.683 32.1641 169.744 32.2867 169.744 32.4094V64.854C169.744 64.9767 169.683 65.0993 169.561 65.0993Z" fill="#FAFAFA"/>
<path d="M115.933 73.8088C116.484 73.2568 115.749 72.3982 115.259 72.2755C114.769 72.1528 114.218 71.9075 114.28 72.7048C113.851 72.1528 113.361 71.1102 113.055 70.7422C112.469 71.2262 111.856 71.6767 111.219 72.0915C111.142 72.4538 111.146 72.8286 111.231 73.189C111.315 73.5495 111.479 73.8868 111.708 74.1768C111.953 74.4835 111.831 74.3608 112.014 75.2195L112.137 75.8941H113.055C113.055 75.8941 113.667 77.55 114.157 77.6114C114.805 77.5564 115.412 77.274 115.871 76.8141C116.337 77.2697 116.828 77.6997 117.341 78.102C117.341 78.102 118.687 76.4461 118.871 75.2808C119.055 74.1155 118.075 74.5448 117.769 74.1154C117.63 74.2203 117.471 74.2957 117.302 74.3371C117.133 74.3785 116.957 74.3851 116.785 74.3564C116.614 74.3277 116.449 74.2644 116.303 74.1703C116.156 74.0762 116.03 73.9532 115.933 73.8088Z" fill="#FCC6B6"/>
<path d="M119.36 75.4634C120.166 75.1157 121.066 75.0538 121.912 75.288C122.758 75.5222 123.499 76.0384 124.012 76.7513C125.849 79.0206 126.033 80.1859 127.869 82.4552C130.991 86.3191 133.93 85.2151 133.93 87.9137C133.93 89.0177 132.461 89.631 130.073 90.183C127.686 90.735 125.727 90.735 124.196 90.183C120.339 88.8337 118.441 87.1778 117.033 85.2151C115.625 83.2525 115.993 77.7326 119.36 75.4634Z" fill="#343836"/>
<path d="M106.382 90.1836C105.814 90.5869 105.197 90.9167 104.546 91.1649C104.381 91.1696 104.222 91.2252 104.091 91.3241C103.959 91.4229 103.861 91.5601 103.811 91.7169C103.75 91.8396 103.811 91.9009 103.75 92.1462C103.688 92.3915 103.137 92.6982 103.26 92.9435C103.382 93.1889 103.505 93.0662 103.627 93.0662C103.75 93.0662 103.688 93.2502 103.811 93.3115C103.933 93.3729 104.117 93.3728 104.239 93.4342C104.362 93.4955 104.545 93.6795 104.79 93.5568C105.035 93.4342 105.035 93.6182 105.158 93.4955C105.435 93.1052 105.642 92.6693 105.77 92.2075C106.015 91.5942 107.423 91.2876 107.423 91.2876L106.382 90.1836Z" fill="#FCC6B6"/>
<path d="M116.116 86.8121C112.872 89.3267 106.933 91.964 106.933 91.964L106.076 90.4307C108.143 89.075 110 87.4218 111.586 85.5241C112.945 83.8642 114.173 82.1006 115.259 80.2496C116.116 77.9803 117.892 76.815 119.055 76.8763C119.272 76.8557 119.49 76.8965 119.685 76.9941C119.879 77.0917 120.043 77.2421 120.157 77.4283C121.748 80.4336 119.606 84.1748 116.116 86.8121Z" fill="#343836"/>
<path d="M113.544 69.4553C111.524 69.9459 110.667 70.9272 110.422 71.2952C110.177 71.6632 111.218 72.0925 111.218 72.0925C111.463 71.9085 112.687 71.4792 112.932 71.2339C112.871 72.0926 113.973 73.0125 114.401 73.5645C114.34 72.7672 114.769 72.2152 115.258 72.2765C115.407 72.3449 115.538 72.4456 115.643 72.5711C115.748 72.6967 115.824 72.8441 115.865 73.0026C115.906 73.1612 115.911 73.3268 115.881 73.4877C115.85 73.6485 115.784 73.8004 115.687 73.9325C115.952 74.2081 116.304 74.3832 116.684 74.4279C117.063 74.4726 117.447 74.3843 117.768 74.1778C117.456 73.6662 117.228 73.1069 117.095 72.5219C116.666 70.2526 115.565 68.9646 113.544 69.4553Z" fill="#343836"/>
<path d="M111.953 74.0528C111.892 73.8688 112.136 73.5008 112.504 73.5008C112.575 73.4775 112.651 73.4709 112.725 73.4815C112.799 73.4921 112.87 73.5197 112.932 73.5622C112.32 73.8688 112.626 73.6848 112.32 74.0528C112.014 74.4208 112.014 74.1755 111.953 74.0528Z" fill="#343836"/>
<path d="M118.993 75.957C118.993 75.957 116.605 79.821 117.83 83.9915C116.666 82.8262 115.687 80.3729 116.238 78.533C116.789 76.693 118.993 75.957 118.993 75.957Z" fill="#FAFAFA"/>
<path d="M113.055 74.1758C112.86 74.1981 112.673 74.2607 112.504 74.3598C112.574 74.5059 112.679 74.6323 112.81 74.7277L113.055 74.1758Z" fill="#343836"/>
<path d="M116.176 77.5508L115.625 78.2868L116.421 79.1454L116.666 77.9801L116.176 77.5508Z" fill="#058D66"/>
<path d="M119.055 74.3594L120.157 75.034C120.157 75.034 117.096 77.1193 116.851 79.1433C116.513 78.5988 116.226 78.0239 115.994 77.426L119.055 74.3594Z" fill="#F4F5F4"/>
<path d="M127.197 89.017C127.197 89.017 133.258 98.6461 137.849 101.897C144.645 106.742 149.542 109.931 149.542 109.931L151.746 107.601C144.094 98.9527 141.523 102.081 139.38 98.7074C138.033 96.6221 133.564 86.625 133.564 86.625L127.197 89.017Z" fill="#343836"/>
<path d="M151.746 109.627L150.46 108.523L149.297 109.811L150.582 110.793C150.864 110.723 151.121 110.578 151.326 110.372C151.531 110.167 151.676 109.909 151.746 109.627Z" fill="#FCC6B6"/>
<path d="M151.318 109.074L152.114 109.32L152.726 109.81L152.114 110.608L151.685 110.73L151.012 111.896L149.42 113.797L149.236 113.49L150.093 110.608L151.257 110.117L151.318 109.074Z" fill="#343836"/>
<path d="M115.932 78.5312C115.643 80.0501 115.459 81.587 115.381 83.1311C115.381 84.9098 115.197 91.043 115.197 91.043C115.197 91.043 116.667 89.2644 116.667 87.9764C116.667 86.6884 116.177 80.0032 116.36 78.7766C116.299 78.6539 115.932 78.5312 115.932 78.5312Z" fill="#058D66"/>
<path d="M130.502 84.6016C130.502 84.6016 130.379 85.6442 130.073 85.7668C129.928 85.8214 129.807 85.9244 129.728 86.0585C129.65 86.1926 129.621 86.3495 129.645 86.5028C129.645 86.6255 129.767 86.6868 129.767 86.9322C129.767 87.1775 129.522 87.6068 129.706 87.7908C129.89 87.9748 130.012 87.7908 130.135 87.7908C130.257 87.7908 130.257 87.9135 130.379 87.9748C130.502 88.0362 130.747 87.9135 130.869 87.9135C130.964 87.9342 131.063 87.9339 131.158 87.9128C131.253 87.8916 131.343 87.85 131.42 87.7908C131.543 87.6068 131.726 87.7295 131.726 87.6068C131.793 87.0755 131.772 86.5368 131.665 86.0122C131.657 85.5705 131.74 85.1319 131.91 84.7242L130.502 84.6016Z" fill="#FCC6B6"/>
<path d="M131.544 75.4639C136.013 78.7758 132.278 85.9517 132.278 85.9517L130.319 85.461C130.319 85.461 130.442 80.4318 129.34 79.8798C125.238 77.7945 121.075 83.3757 118.626 78.4691C118.475 78.0795 118.418 77.6595 118.461 77.2436C118.504 76.8277 118.644 76.4279 118.871 76.0772C121.198 73.3786 129.279 73.7466 131.544 75.4639Z" fill="#343836"/>
<path d="M126.218 115.453L125.422 113.613L124.014 114.472L124.381 115.392L124.197 115.821C124.531 115.977 124.904 116.025 125.266 115.96C125.628 115.894 125.96 115.717 126.218 115.453Z" fill="#FCC6B6"/>
<path d="M125.972 114.84L126.645 115.392L126.951 116.128L126.033 116.557H125.605L124.564 117.354L122.36 118.458L122.299 118.152L124.197 115.821H125.482L125.972 114.84Z" fill="#343836"/>
<path d="M127.013 88.6523C125.272 90.5673 123.771 92.6888 122.544 94.9695C120.463 99.1401 119.483 101.225 119.606 103.372C119.667 103.863 124.075 114.534 124.075 114.534L126.401 113.798C125.912 104.415 120.83 103.924 125.483 99.9374C128.428 97.3513 130.769 94.1476 132.34 90.5537L127.013 88.6523Z" fill="#343836"/>
<path d="M239.473 165.931H146.97C146.286 165.929 145.605 165.825 144.95 165.624H65.2422L82.1388 144.71L91.6891 134.774L99.8312 130.42L100.994 129.806H101.056L104.545 127.966L122.36 118.521L123.523 117.908H123.646L124.625 117.356L125.972 116.62L126.768 116.191L126.89 116.068L137.604 101.778L139.624 99.1404L169.438 59.3359L169.56 59.4586L207.455 117.172L239.289 165.624L239.473 165.931Z" fill="#82CEB5"/>
<path opacity="0.4" fill-rule="evenodd" clip-rule="evenodd" d="M146.97 165.931H221.597L221.474 165.624L208.802 136.246L199.986 128.886L197.843 126.556L169.56 95.7671L169.438 59.3359L157.622 86.138L150.949 106.684L150.215 108.769L150.031 109.444L150.003 109.527L149.48 109.935H149.419L145.868 112.633L128.788 125.881L122.298 135.265L115.197 145.507L101.361 165.624H144.215V165.624H144.95C145.604 165.825 146.285 165.929 146.97 165.931Z" fill="#51B998"/>
<path d="M102.83 93.4959C102.83 93.4959 103.626 92.8213 103.504 92.4533C103.463 92.3068 103.478 92.1504 103.546 92.0144C103.614 91.8784 103.729 91.7725 103.871 91.7173L104.299 91.5946C104.483 91.472 104.667 90.92 104.973 90.9813C105.279 91.0426 105.156 91.2267 105.218 91.3493C105.279 91.472 105.401 91.3493 105.524 91.472C105.646 91.5947 105.707 91.7786 105.769 91.84C105.83 91.9013 106.075 92.0853 106.014 92.3306C105.952 92.5759 106.197 92.576 106.136 92.6986C105.735 93.0542 105.28 93.3439 104.789 93.5573C104.409 93.8054 104.093 94.1421 103.871 94.5386L102.83 93.4959Z" fill="#FCC6B6"/>
<path d="M98.4229 99.875C100.492 98.245 102.418 96.4393 104.177 94.4778L102.586 93.0672L102.218 92.6992C102.218 92.6992 101.055 93.9872 99.7085 95.2138C98.3616 96.4405 96.7699 97.1151 95.9741 97.6058C93.8926 98.8324 94.0763 98.2804 90.4643 99.2004L89.9745 99.3231C87.6482 100.059 86.3626 101.715 86.3626 102.942C86.3421 103.159 86.3828 103.378 86.4802 103.573C86.5776 103.768 86.7278 103.932 86.9136 104.046C89.7909 105.824 96.0965 101.654 98.4229 99.875Z" fill="#343836"/>
<path d="M92.2407 115.208C92.2407 115.208 102.954 113.981 102.832 116.68C102.709 119.378 101.791 128.333 101.791 128.333L99.8931 128.701C99.8931 128.701 98.5463 123.917 98.8524 119.93C99.036 117.293 93.5263 122.568 88.2002 119.992C86.6085 119.194 89.7307 117.845 89.7307 117.845L92.2407 115.208Z" fill="#343836"/>
<path d="M90.7702 100.18L91.6885 100.364V101.468L90.709 100.854L90.7702 100.18Z" fill="#058D66"/>
<path d="M91.6277 100.609C91.6277 100.609 93.8316 101.897 94.505 102.879C95.1784 103.86 94.6887 105.761 94.6887 105.761L91.3828 101.1L91.6277 100.609Z" fill="#058D66"/>
<path d="M85.8115 116.496C85.8115 116.496 85.2605 121.035 85.0768 127.291C84.9544 131.4 82.2608 130.234 80.9751 133.608C79.6895 136.981 77.7305 142.685 77.7305 142.685L79.8732 143.298C79.8732 143.298 84.2198 135.632 87.5256 130.848C90.8315 126.064 91.9947 118.213 91.9947 118.213L85.8115 116.496Z" fill="#343836"/>
<path d="M87.0969 99.9349C86.6684 99.9963 85.0767 102.634 85.2603 105.455C85.444 108.276 85.6889 107.969 86.1786 110.852C86.9745 115.145 82.6891 117.905 82.934 119.255C83.1788 120.604 86.852 120.604 88.8111 120.174C90.7701 119.745 92.974 118.151 93.525 116.617C95.1167 112.508 95.6677 109.871 95.0555 106.559C94.4433 103.247 91.1374 99.3216 87.0969 99.9349Z" fill="#343836"/>
<path d="M78.4666 122.26C78.4054 122.26 78.3441 122.26 78.3441 122.199C78.3441 122.137 78.2217 122.015 78.2829 121.892C78.5847 121.524 78.7758 121.077 78.8339 120.604C78.8339 120.359 78.6503 120.175 77.9156 119.746L77.6707 119.623C76.8749 119.194 76.5688 119.01 76.3239 119.132C75.9578 119.441 75.6827 119.844 75.528 120.298L75.2219 120.42C75.1671 120.393 75.1242 120.347 75.1015 120.291C75.0789 120.234 75.0781 120.171 75.0995 120.113C75.2955 119.565 75.6599 119.093 76.1402 118.764C76.63 118.519 77.0585 118.764 77.9156 119.255L78.0993 119.378C78.8951 119.868 79.3236 120.052 79.2624 120.604C79.1883 121.158 78.9779 121.685 78.6502 122.137L78.4666 122.26Z" fill="#343836"/>
<path d="M77.792 129.008L69.3438 124.041L72.8332 118.582L81.2203 123.489L77.792 129.008Z" fill="#007D57"/>
<path d="M78.9553 117.539C78.9553 117.539 78.588 118.52 78.8329 118.765C78.9318 118.884 78.9909 119.031 79.0019 119.185C79.0128 119.339 78.9751 119.493 78.8941 119.624C78.7636 119.693 78.657 119.8 78.588 119.931C78.4656 120.115 78.4656 120.667 78.2207 120.728C77.9758 120.789 77.9146 120.605 77.8534 120.605C77.7921 120.605 77.6697 120.605 77.4861 120.605C77.3024 120.605 77.2412 120.421 77.1187 120.36C76.9963 120.299 76.7514 120.299 76.6902 120.053C76.629 119.808 76.4453 119.869 76.4453 119.747C76.65 119.264 76.9176 118.81 77.2412 118.397C77.4399 117.994 77.5644 117.557 77.6085 117.109L78.9553 117.539Z" fill="#FCC6B6"/>
<path d="M79.9957 109.993C78.9178 112.349 78.0373 114.79 77.3633 117.292L79.3835 117.905L79.8733 118.028C80.1805 116.885 80.5483 115.759 80.9753 114.655C81.3426 113.551 82.6894 111.649 83.1791 110.913C84.526 108.828 84.5872 109.38 87.4033 106.988L87.7706 106.62C89.4848 104.964 89.8521 102.879 89.3011 101.836C89.22 101.63 89.0873 101.449 88.9157 101.309C88.7441 101.169 88.5395 101.076 88.3216 101.039C84.9545 100.855 81.2813 107.356 79.9957 109.993Z" fill="#343836"/>
<path d="M88.1389 97.1769C87.4042 97.1769 87.2206 96.0729 87.4655 95.6436C87.7104 95.2143 87.9552 94.6009 88.445 95.2142C88.2809 94.4677 88.0765 93.7307 87.8328 93.0063C88.6004 92.908 89.3583 92.7438 90.0979 92.5156C90.4019 92.7177 90.6618 92.9796 90.8617 93.2853C91.0617 93.5911 91.1975 93.9343 91.2611 94.2943C91.2523 94.498 91.2859 94.7013 91.3596 94.8913C91.4334 95.0814 91.5458 95.254 91.6896 95.3982L92.3018 96.1342L91.6896 96.5022C91.6896 96.5022 92.4243 98.0968 92.1794 98.4648C91.6889 98.8981 91.0579 99.138 90.404 99.1395C90.4216 99.8148 90.4012 100.49 90.3428 101.163C90.3428 101.163 88.2613 100.979 87.2818 100.305C86.3023 99.6301 87.2818 99.2622 87.1594 98.7102C87.3283 98.6819 87.4894 98.6185 87.6323 98.524C87.7752 98.4295 87.8968 98.306 87.9891 98.1615C88.0814 98.017 88.1424 97.8547 88.1682 97.6851C88.194 97.5155 88.184 97.3424 88.1389 97.1769Z" fill="#FCC6B6"/>
<path d="M86.0579 92.7602C87.772 91.6562 88.7515 91.5335 89.2413 91.5949C89.4607 91.6425 89.6603 91.7561 89.8135 91.9205C89.9666 92.085 90.066 92.2923 90.0983 92.5148C89.5111 92.8029 88.8956 93.029 88.2617 93.1895C88.9964 93.7415 88.874 95.1521 88.9964 95.8881C88.5066 95.2748 87.772 95.2135 87.4659 95.6428C87.4202 95.7964 87.4084 95.9581 87.4314 96.1167C87.4544 96.2753 87.5116 96.4269 87.599 96.5612C87.6863 96.6954 87.8018 96.809 87.9374 96.894C88.073 96.979 88.2255 97.0334 88.3842 97.0534C88.4219 97.4325 88.3174 97.8121 88.0911 98.1182C87.8648 98.4243 87.5328 98.6351 87.1598 98.7094C87.0035 98.1412 86.7553 97.6025 86.4252 97.1147C85.0171 95.2748 84.3437 93.9255 86.0579 92.7602Z" fill="#343836"/>
<path d="M86.547 99.8125L86.1797 101.1C86.1797 101.1 89.7916 100.487 91.3834 101.775C91.253 101.167 91.0686 100.572 90.8324 99.9965L86.547 99.8125Z" fill="#F4F5F4"/>
<path d="M91.0153 94.4169C90.9541 94.2942 90.4644 94.2329 90.2195 94.4169C90.1047 94.5383 90.0207 94.6855 89.9746 94.8462C90.648 94.6009 90.2807 94.6622 90.7705 94.6622C91.2602 94.6622 91.0766 94.6009 91.0153 94.4169Z" fill="#343836"/>
<path d="M90.0977 95.3965C90.0977 95.3965 90.4038 95.0898 90.5874 95.0898C90.6593 95.2207 90.6811 95.3734 90.6487 95.5192L90.0977 95.3965Z" fill="#343836"/>
<path d="M103.444 128.211L104.546 127.781V128.272L101.179 130.051L101.056 129.744L100.812 130.296L99.832 130.787L100.016 128.701L101.73 128.333L103.444 128.211Z" fill="#343836"/>
<path d="M80.4243 144.771H82.1385L81.5263 145.323L79.9958 145.446L78.4653 144.649V144.158L78.0367 144.465L77.1797 144.035L78.098 142.809L79.7509 143.299L80.4243 144.771Z" fill="#343836"/>
<path d="M238.161 152.902C236.692 153.147 235.712 153.208 235.712 153.208H145.781C145.136 153.211 144.495 153.107 143.883 152.902L143.21 152.595C139.23 150.694 138.618 144.131 142.781 139.102C146.944 134.073 154.168 131.251 166.84 133.582C166.84 133.582 166.167 123.156 174.003 118.372C174.92 117.781 175.907 117.307 176.942 116.961C185.696 114.017 191.328 121.254 191.328 121.254C191.297 118.717 191.754 116.197 192.675 113.833C193.424 111.74 194.593 109.822 196.109 108.198C197.625 106.574 199.456 105.277 201.491 104.388L202.164 104.143C211.592 100.401 215.755 110.46 215.755 110.46C215.755 110.46 222.734 104.204 231.427 106.841C242.385 110.153 241.283 124.382 236.263 127.817C236.263 127.817 252.487 124.75 253.711 136.649C254.935 148.547 243.426 152.043 238.161 152.902Z" fill="#F4F5F4"/>
</svg>
