<svg width="24" height="24" viewBox="0 0 24 24" fill="none" xmlns="http://www.w3.org/2000/svg">
<g clip-path="url(#clip0)">
<path fill-rule="evenodd" clip-rule="evenodd" d="M2 4H30.5V5.1543H2V4ZM2 6.30859H30.5V7.46289H2V6.30859ZM2 8.61426H30.5V9.77148H2V8.61426ZM2 10.9229H30.5V12.0771H2V10.9229ZM2 13.2314H30.5V14.3857H2V13.2314ZM2 15.5371H30.5V16.6914H2V15.5371ZM2 17.8457H30.5V19H2V17.8457Z" fill="#BD3D44"/>
<path fill-rule="evenodd" clip-rule="evenodd" d="M2 5.15625H30.5V6.31055H2V5.15625ZM2 7.46484H30.5V8.61621H2V7.46484ZM2 9.77051H30.5V10.9248H2V9.77051ZM2 12.0791H30.5V13.2334H2V12.0791ZM2 14.3877H30.5V15.542H2V14.3877ZM2 16.6934H30.5V17.8477H2V16.6934Z" fill="white"/>
<path fill-rule="evenodd" clip-rule="evenodd" d="M2 4H13.3994V12.0771H2V4Z" fill="#192F5D"/>
<path fill-rule="evenodd" clip-rule="evenodd" d="M2.94727 4.34766L3.05273 4.66699H3.38672L3.11719 4.86328L3.21973 5.18555L2.94727 4.98633L2.67773 5.18262L2.78027 4.86328L2.50781 4.66699H2.84766L2.94727 4.34766ZM4.84863 4.34766L4.95117 4.66699H5.28809L5.01563 4.86328L5.11816 5.18555L4.84863 4.98633L4.57617 5.18262L4.67871 4.86328L4.40918 4.66699H4.74316L4.84863 4.34766ZM6.74707 4.34766L6.85254 4.66699H7.18359L6.91406 4.86328L7.0166 5.18555L6.74414 4.98633L6.47461 5.18262L6.57715 4.86328L6.30469 4.66699H6.6416L6.74707 4.34766ZM8.64844 4.34766L8.75098 4.66699H9.08789L8.81543 4.86328L8.9209 5.18555L8.64844 4.98633L8.37598 5.18262L8.48145 4.86328L8.20899 4.66699H8.54297L8.64844 4.34766ZM10.5469 4.34766L10.6523 4.66699H10.9863L10.7168 4.86328L10.8193 5.18555L10.5469 4.98633L10.2773 5.18262L10.3799 4.86328L10.1104 4.66699H10.4443L10.5469 4.34766ZM12.4482 4.34766L12.5508 4.66699H12.8877L12.6152 4.86328L12.7207 5.18555L12.4482 4.98633L12.1758 5.18262L12.2813 4.86328L12.0088 4.66699H12.3457L12.4482 4.34766ZM3.89941 5.15625L4.00195 5.47559H4.33887L4.06641 5.67187L4.16602 5.99121L3.90234 5.79492L3.62988 5.99121L3.72656 5.67187L3.46289 5.47559H3.79688L3.89941 5.15625ZM5.79785 5.15625L5.90332 5.47559H6.2373L5.96484 5.67187L6.07031 5.99121L5.79785 5.79492L5.52539 5.99121L5.63086 5.67187L5.3584 5.47559H5.69531L5.79785 5.15625ZM7.69922 5.15625L7.80176 5.47559H8.13867L7.86621 5.67187L7.96875 5.99121L7.69922 5.79492L7.42676 5.99121L7.5293 5.67187L7.25977 5.47559H7.59375L7.69922 5.15625ZM9.59766 5.15625L9.70313 5.47559H10.0371L9.76465 5.67187L9.87012 5.99121L9.59766 5.79492L9.32813 5.99121L9.43067 5.67187L9.1582 5.47559H9.49805L9.59766 5.15625ZM11.499 5.15625L11.6016 5.47559H11.9385L11.666 5.67187L11.7686 5.99121L11.499 5.79492L11.2266 5.99121L11.3291 5.67187L11.0596 5.47559H11.3936L11.499 5.15625ZM2.94727 5.96191L3.05273 6.28711H3.38672L3.11719 6.4834L3.21973 6.80273L2.94727 6.60351L2.67773 6.80273L2.78027 6.48047L2.50781 6.28418H2.84766L2.94727 5.96191ZM4.84863 5.96191L4.95117 6.28418H5.28809L5.01563 6.48047L5.11816 6.7998L4.84863 6.60058L4.57617 6.7998L4.67871 6.47754L4.40918 6.28125H4.74316L4.84863 5.96191ZM6.74707 5.96191L6.85254 6.28418H7.18359L6.91406 6.48047L7.0166 6.7998L6.74414 6.60058L6.47461 6.7998L6.57715 6.47754L6.30469 6.28125H6.6416L6.74707 5.96191ZM8.64844 5.96191L8.75098 6.28418H9.08789L8.81543 6.48047L8.9209 6.7998L8.64844 6.60058L8.37598 6.7998L8.48145 6.47754L8.20899 6.28125H8.54297L8.64844 5.96191ZM10.5469 5.96191L10.6523 6.28418H10.9863L10.7168 6.48047L10.8193 6.7998L10.5469 6.60058L10.2773 6.7998L10.3799 6.47754L10.1104 6.28125H10.4443L10.5469 5.96191ZM12.4482 5.96191L12.5508 6.28418H12.8877L12.6152 6.48047L12.7207 6.7998L12.4482 6.60058L12.1758 6.7998L12.2813 6.47754L12.0088 6.28125H12.3457L12.4482 5.96191ZM3.89941 6.77051L4.00195 7.08984H4.33887L4.06641 7.28613L4.16895 7.6084L3.89941 7.40918L3.62695 7.60547L3.72949 7.28613L3.45996 7.08984H3.79395L3.89941 6.77051ZM5.79785 6.77051L5.90332 7.08984H6.2373L5.96484 7.28613L6.07031 7.6084L5.79785 7.40918L5.52539 7.60547L5.63086 7.28613L5.3584 7.08984H5.69531L5.79785 6.77051ZM7.69922 6.77051L7.80176 7.08984H8.13867L7.86621 7.28613L7.96875 7.6084L7.69922 7.40918L7.42676 7.60547L7.5293 7.28613L7.25977 7.08984H7.59375L7.69922 6.77051ZM9.59766 6.77051L9.70313 7.08984H10.0371L9.76758 7.28613L9.87012 7.6084L9.59766 7.40918L9.32813 7.60547L9.43067 7.28613L9.1582 7.08984H9.49805L9.59766 6.77051ZM11.499 6.77051L11.6016 7.08984H11.9385L11.666 7.28613L11.7686 7.6084L11.499 7.40918L11.2266 7.60547L11.3291 7.28613L11.0596 7.08984H11.3936L11.499 6.77051ZM2.94727 7.5791L3.05273 7.89844H3.38672L3.11719 8.09472L3.21973 8.41699L2.94727 8.21777L2.67773 8.41406L2.78027 8.09472L2.50781 7.89844H2.84766L2.94727 7.5791ZM4.84863 7.5791L4.95117 7.89844H5.28809L5.01563 8.09472L5.11816 8.41406L4.84863 8.21777L4.57617 8.41406L4.67871 8.09472L4.40918 7.89844H4.74316L4.84863 7.5791ZM6.74707 7.5791L6.85254 7.89844H7.18359L6.91406 8.09472L7.0166 8.41699L6.74414 8.21777L6.47461 8.41406L6.57715 8.09472L6.30469 7.89844H6.6416L6.74707 7.5791ZM8.64844 7.5791L8.75098 7.89844H9.08789L8.81543 8.09472L8.9209 8.41699L8.64844 8.21777L8.37598 8.41406L8.48145 8.09472L8.20899 7.89844H8.54297L8.64844 7.5791ZM10.5469 7.5791L10.6523 7.89844H10.9863L10.7168 8.09472L10.8193 8.41699L10.5469 8.21777L10.2773 8.41406L10.3799 8.09472L10.1104 7.89844H10.4443L10.5469 7.5791ZM12.4482 7.5791L12.5508 7.89844H12.8877L12.6152 8.09472L12.7207 8.41699L12.4482 8.21777L12.1758 8.41406L12.2813 8.09472L12.0088 7.89844H12.3457L12.4482 7.5791ZM3.89941 8.38769L4.00195 8.70703H4.33887L4.06641 8.90332L4.16895 9.22265L3.89941 9.02344L3.62695 9.22265L3.72949 8.90039L3.45996 8.7041H3.79395L3.89941 8.38769ZM5.79785 8.38769L5.90332 8.70703H6.2373L5.96484 8.90332L6.07031 9.22265L5.79785 9.02344L5.52539 9.22265L5.63086 8.90039L5.3584 8.7041H5.69531L5.79785 8.38769ZM7.69922 8.38769L7.80176 8.70703H8.13867L7.86621 8.90332L7.96875 9.22265L7.69922 9.02344L7.42676 9.22265L7.5293 8.90039L7.25977 8.7041H7.59375L7.69922 8.38769ZM9.59766 8.38769L9.70313 8.70703H10.0371L9.76758 8.90332L9.87012 9.22265L9.59766 9.02344L9.32813 9.22265L9.43067 8.90039L9.1582 8.7041H9.49805L9.59766 8.38769ZM11.499 8.38769L11.6016 8.70703H11.9385L11.666 8.90332L11.7686 9.22265L11.499 9.02344L11.2266 9.22265L11.3291 8.90039L11.0596 8.7041H11.3936L11.499 8.38769ZM2.94727 9.19336L3.05273 9.51562H3.38672L3.11719 9.71191L3.21973 10.0283L2.94727 9.83203L2.67773 10.0283L2.78027 9.70898L2.50781 9.51269H2.84766L2.94727 9.19336ZM4.84863 9.19336L4.95117 9.51562H5.28809L5.01563 9.71191L5.12109 10.0283L4.84863 9.83203L4.57617 10.0283L4.68164 9.70898L4.40918 9.51269H4.74316L4.84863 9.19336ZM6.74707 9.19336L6.85254 9.51562H7.18359L6.91406 9.71191L7.0166 10.0283L6.74414 9.83203L6.47461 10.0283L6.57715 9.70898L6.30469 9.51269H6.6416L6.74707 9.19336ZM8.64844 9.19336L8.75098 9.51562H9.08789L8.81543 9.71191L8.9209 10.0283L8.64844 9.83203L8.37598 10.0283L8.48145 9.70898L8.20899 9.51269H8.54297L8.64844 9.19336ZM10.5469 9.19336L10.6523 9.51562H10.9863L10.7168 9.71191L10.8193 10.0283L10.5469 9.83203L10.2773 10.0283L10.3799 9.70898L10.1104 9.51269H10.4443L10.5469 9.19336ZM12.4482 9.19336L12.5508 9.51562H12.8877L12.6152 9.71191L12.7207 10.0283L12.4482 9.83203L12.1758 10.0283L12.2813 9.70898L12.0088 9.51269H12.3457L12.4482 9.19336ZM3.89941 10.002L4.00195 10.3213H4.33887L4.06641 10.5176L4.16895 10.8398L3.89941 10.6406L3.62695 10.8369L3.72949 10.5176L3.45996 10.3213H3.79395L3.89941 10.002ZM5.79785 10.002L5.90332 10.3213H6.2373L5.96484 10.5176L6.07031 10.8398L5.79785 10.6406L5.52539 10.8369L5.63086 10.5176L5.3584 10.3213H5.69531L5.79785 10.002ZM7.69922 10.002L7.80176 10.3213H8.13867L7.86621 10.5176L7.96875 10.8398L7.69922 10.6406L7.42676 10.8369L7.5293 10.5176L7.25977 10.3213H7.59375L7.69922 10.002ZM9.59766 10.002L9.70313 10.3213H10.0371L9.76758 10.5176L9.87012 10.8398L9.59766 10.6406L9.32813 10.8369L9.43067 10.5176L9.1582 10.3213H9.49805L9.59766 10.002ZM11.499 10.002L11.6016 10.3213H11.9385L11.666 10.5176L11.7686 10.8398L11.499 10.6406L11.2266 10.8369L11.3291 10.5176L11.0596 10.3213H11.3936L11.499 10.002ZM2.94727 10.8105L3.05273 11.1299H3.38672L3.11719 11.3262L3.21973 11.6455L2.94727 11.4492L2.67773 11.6455L2.78027 11.3232L2.50781 11.127H2.84766L2.94727 10.8105ZM4.84863 10.8105L4.95117 11.1299H5.28809L5.01563 11.3262L5.12109 11.6455L4.84863 11.4492L4.57617 11.6455L4.68164 11.3232L4.40918 11.127H4.74316L4.84863 10.8105ZM6.74707 10.8105L6.85254 11.1299H7.18359L6.91992 11.3262L7.02246 11.6455L6.75 11.4492L6.48047 11.6455L6.58301 11.3232L6.31055 11.127H6.64746L6.74707 10.8105ZM8.64844 10.8105L8.75098 11.1299H9.08789L8.81543 11.3262L8.9209 11.6455L8.64844 11.4492L8.37598 11.6455L8.48145 11.3232L8.20899 11.127H8.54297L8.64844 10.8105ZM10.5469 10.8105L10.6523 11.1299H10.9863L10.7168 11.3262L10.8193 11.6455L10.5469 11.4492L10.2773 11.6455L10.3799 11.3232L10.1104 11.127H10.4443L10.5469 10.8105ZM12.4482 10.8105L12.5508 11.1299H12.8877L12.6152 11.3262L12.7207 11.6455L12.4482 11.4492L12.1758 11.6455L12.2813 11.3232L12.0088 11.127H12.3457L12.4482 10.8105Z" fill="white"/>
</g>
<defs>
<clipPath id="clip0">
<rect x="2" y="4" width="20" height="15" fill="white"/>
</clipPath>
</defs>
</svg>
