<svg width="17" height="18" viewBox="0 0 17 18" fill="none" xmlns="http://www.w3.org/2000/svg">
                        <path
                            d="M0.416 18V14.472C0.416 12.52 0.656 10.944 1.136 9.744C1.616 8.528 2.376 7.624 3.416 7.032C4.472 6.424 5.864 6.072 7.592 5.976V0.863999H9.704V5.976C11.304 6.072 12.632 6.416 13.688 7.008C14.76 7.584 15.56 8.472 16.088 9.672C16.616 10.856 16.88 12.432 16.88 14.4V18H14.744V14.448C14.744 12.864 14.552 11.6 14.168 10.656C13.8 9.712 13.24 9.024 12.488 8.592C11.752 8.144 10.824 7.88 9.704 7.8V14.064H7.592V7.8C6.392 7.88 5.416 8.144 4.664 8.592C3.928 9.04 3.392 9.736 3.056 10.68C2.72 11.624 2.552 12.872 2.552 14.424V18H0.416Z"
                            fill="black" fill-opacity="0.87" />
                    </svg>